<svg width="168" height="39" viewBox="0 0 168 39" fill="none" xmlns="http://www.w3.org/2000/svg">
<path d="M0.0239707 2.14783C-0.334482 6.01727 3.25543 26.1017 15.6462 39C13.8462 24.6276 20.3083 14.9578 27.3083 10.071C28.8197 9.01592 27.4878 7.42994 26.7698 6.93858C24.0773 5.1574 16.7895 1.33709 9.17861 0.305224C1.56771 -0.726637 -0.0956909 1.10369 0.0239707 2.14783Z" fill="white"/>
<path d="M52.0742 14.1211H46.8125V28.5H43.5078V14.1211H38.3164V11.4375H52.0742V14.1211ZM53.6211 22.043C53.6211 21.1211 53.7539 20.2695 54.0195 19.4883C54.2852 18.6992 54.6758 18.0156 55.1914 17.4375C55.6992 16.8594 56.3203 16.4062 57.0547 16.0781C57.7969 15.75 58.6445 15.5859 59.5977 15.5859C60.5508 15.5859 61.3984 15.75 62.1406 16.0781C62.8828 16.4062 63.5117 16.8594 64.0273 17.4375C64.5352 18.0156 64.9219 18.6992 65.1875 19.4883C65.4531 20.2695 65.5859 21.1211 65.5859 22.043V22.2891C65.5859 23.2188 65.4531 24.0781 65.1875 24.8672C64.9219 25.6484 64.5352 26.3281 64.0273 26.9062C63.5195 27.4844 62.8945 27.9375 62.1523 28.2656C61.4102 28.5859 60.5664 28.7461 59.6211 28.7461C58.668 28.7461 57.8164 28.5859 57.0664 28.2656C56.3242 27.9375 55.6992 27.4844 55.1914 26.9062C54.6758 26.3281 54.2852 25.6484 54.0195 24.8672C53.7539 24.0781 53.6211 23.2188 53.6211 22.2891V22.043ZM56.8789 22.2891C56.8789 22.8203 56.9297 23.3203 57.0312 23.7891C57.1328 24.25 57.293 24.6523 57.5117 24.9961C57.7305 25.3477 58.0117 25.625 58.3555 25.8281C58.707 26.0312 59.1289 26.1328 59.6211 26.1328C60.0977 26.1328 60.5078 26.0312 60.8516 25.8281C61.1953 25.625 61.4766 25.3477 61.6953 24.9961C61.9062 24.6523 62.0625 24.25 62.1641 23.7891C62.2656 23.3203 62.3164 22.8203 62.3164 22.2891V22.043C62.3164 21.5273 62.2656 21.0391 62.1641 20.5781C62.0625 20.1172 61.9062 19.7109 61.6953 19.3594C61.4766 19.0078 61.1953 18.7305 60.8516 18.5273C60.5078 18.3242 60.0898 18.2227 59.5977 18.2227C59.1133 18.2227 58.6992 18.3242 58.3555 18.5273C58.0117 18.7305 57.7305 19.0078 57.5117 19.3594C57.293 19.7109 57.1328 20.1172 57.0312 20.5781C56.9297 21.0391 56.8789 21.5273 56.8789 22.043V22.2891ZM77.5859 15.5859C78.0781 15.5859 78.5312 15.6211 78.9453 15.6914C79.3672 15.7539 79.707 15.8242 79.9648 15.9023L79.4844 19.1484C79.0547 19.0469 78.6133 18.9727 78.1602 18.9258C77.7148 18.8711 77.2891 18.8438 76.8828 18.8438C76.4609 18.8438 76.0781 18.8828 75.7344 18.9609C75.3984 19.0312 75.0977 19.1406 74.832 19.2891C74.5117 19.4609 74.2383 19.6797 74.0117 19.9453C73.7852 20.2109 73.5977 20.5234 73.4492 20.8828V28.5H70.1914V15.8203H73.2266L73.3555 17.6133L73.3789 17.8945C73.8945 17.1758 74.5117 16.6133 75.2305 16.207C75.9492 15.793 76.7344 15.5859 77.5859 15.5859ZM82.8945 28.5V15.8203H85.8477L86.0469 17.5781C86.2109 17.3438 86.3906 17.1289 86.5859 16.9336C86.7812 16.7383 86.9883 16.5625 87.207 16.4062C87.582 16.1406 87.9922 15.9375 88.4375 15.7969C88.8828 15.6562 89.3555 15.5859 89.8555 15.5859C90.4961 15.5859 91.082 15.6797 91.6133 15.8672C92.1445 16.0547 92.6055 16.3516 92.9961 16.7578C93.3789 17.1719 93.6758 17.7031 93.8867 18.3516C94.1055 18.9922 94.2148 19.7734 94.2148 20.6953V28.5H90.957V20.7422C90.957 20.2422 90.8984 19.832 90.7812 19.5117C90.6719 19.1836 90.5117 18.9258 90.3008 18.7383C90.0898 18.5508 89.8359 18.4219 89.5391 18.3516C89.2422 18.2734 88.9062 18.2344 88.5312 18.2344C88.2188 18.2344 87.9297 18.2695 87.6641 18.3398C87.4062 18.4102 87.1758 18.5156 86.9727 18.6562C86.8086 18.7578 86.6602 18.8789 86.5273 19.0195C86.3945 19.1602 86.2734 19.3164 86.1641 19.4883V28.5H82.8945ZM105.23 28.5C105.152 28.3438 105.086 28.1641 105.031 27.9609C104.977 27.7578 104.93 27.543 104.891 27.3164C104.711 27.5117 104.504 27.6953 104.27 27.8672C104.035 28.0391 103.777 28.1875 103.496 28.3125C103.207 28.4453 102.891 28.5469 102.547 28.6172C102.203 28.6953 101.832 28.7344 101.434 28.7344C100.785 28.7344 100.188 28.6406 99.6406 28.4531C99.1016 28.2656 98.6367 28.0039 98.2461 27.668C97.8555 27.332 97.5508 26.9336 97.332 26.4727C97.1133 26.0039 97.0039 25.4961 97.0039 24.9492C97.0039 24.2461 97.1406 23.625 97.4141 23.0859C97.6875 22.5391 98.0977 22.0898 98.6445 21.7383C99.1367 21.418 99.7422 21.1758 100.461 21.0117C101.188 20.8398 102.02 20.7539 102.957 20.7539H104.773V20.0039C104.773 19.707 104.727 19.4414 104.633 19.207C104.539 18.9648 104.398 18.7578 104.211 18.5859C104.016 18.4062 103.77 18.2695 103.473 18.1758C103.184 18.0742 102.844 18.0234 102.453 18.0234C102.109 18.0234 101.812 18.0664 101.562 18.1523C101.312 18.2305 101.109 18.3438 100.953 18.4922C100.812 18.625 100.707 18.7852 100.637 18.9727C100.574 19.1602 100.543 19.3672 100.543 19.5938H97.2852C97.2852 19.0547 97.4023 18.543 97.6367 18.0586C97.8789 17.5742 98.2305 17.1484 98.6914 16.7812C99.1445 16.4141 99.6992 16.125 100.355 15.9141C101.02 15.6953 101.777 15.5859 102.629 15.5859C103.395 15.5859 104.105 15.6797 104.762 15.8672C105.426 16.0547 106 16.332 106.484 16.6992C106.969 17.0664 107.348 17.5312 107.621 18.0938C107.895 18.6484 108.031 19.293 108.031 20.0273V25.4648C108.031 26.1445 108.074 26.707 108.16 27.1523C108.246 27.5977 108.371 27.9805 108.535 28.3008V28.5H105.23ZM102.125 26.2148C102.453 26.2148 102.758 26.1758 103.039 26.0977C103.32 26.0195 103.574 25.918 103.801 25.793C104.027 25.668 104.223 25.5273 104.387 25.3711C104.551 25.207 104.68 25.043 104.773 24.8789V22.6992H103.109C102.602 22.6992 102.168 22.75 101.809 22.8516C101.449 22.9453 101.156 23.0781 100.93 23.25C100.703 23.4297 100.535 23.6445 100.426 23.8945C100.316 24.1367 100.262 24.4023 100.262 24.6914C100.262 24.918 100.301 25.1289 100.379 25.3242C100.465 25.5117 100.586 25.6719 100.742 25.8047C100.898 25.9297 101.09 26.0312 101.316 26.1094C101.551 26.1797 101.82 26.2148 102.125 26.2148ZM124.145 14.1211H118.883V28.5H115.578V14.1211H110.387V11.4375H124.145V14.1211ZM125.691 22.043C125.691 21.1211 125.824 20.2695 126.09 19.4883C126.355 18.6992 126.746 18.0156 127.262 17.4375C127.77 16.8594 128.391 16.4062 129.125 16.0781C129.867 15.75 130.715 15.5859 131.668 15.5859C132.621 15.5859 133.469 15.75 134.211 16.0781C134.953 16.4062 135.582 16.8594 136.098 17.4375C136.605 18.0156 136.992 18.6992 137.258 19.4883C137.523 20.2695 137.656 21.1211 137.656 22.043V22.2891C137.656 23.2188 137.523 24.0781 137.258 24.8672C136.992 25.6484 136.605 26.3281 136.098 26.9062C135.59 27.4844 134.965 27.9375 134.223 28.2656C133.48 28.5859 132.637 28.7461 131.691 28.7461C130.738 28.7461 129.887 28.5859 129.137 28.2656C128.395 27.9375 127.77 27.4844 127.262 26.9062C126.746 26.3281 126.355 25.6484 126.09 24.8672C125.824 24.0781 125.691 23.2188 125.691 22.2891V22.043ZM128.949 22.2891C128.949 22.8203 129 23.3203 129.102 23.7891C129.203 24.25 129.363 24.6523 129.582 24.9961C129.801 25.3477 130.082 25.625 130.426 25.8281C130.777 26.0312 131.199 26.1328 131.691 26.1328C132.168 26.1328 132.578 26.0312 132.922 25.8281C133.266 25.625 133.547 25.3477 133.766 24.9961C133.977 24.6523 134.133 24.25 134.234 23.7891C134.336 23.3203 134.387 22.8203 134.387 22.2891V22.043C134.387 21.5273 134.336 21.0391 134.234 20.5781C134.133 20.1172 133.977 19.7109 133.766 19.3594C133.547 19.0078 133.266 18.7305 132.922 18.5273C132.578 18.3242 132.16 18.2227 131.668 18.2227C131.184 18.2227 130.77 18.3242 130.426 18.5273C130.082 18.7305 129.801 19.0078 129.582 19.3594C129.363 19.7109 129.203 20.1172 129.102 20.5781C129 21.0391 128.949 21.5273 128.949 22.043V22.2891ZM140.363 28.5V11.4375H144.781C145.57 11.4375 146.309 11.5352 146.996 11.7305C147.684 11.918 148.309 12.1875 148.871 12.5391C149.363 12.8281 149.801 13.1836 150.184 13.6055C150.574 14.0195 150.914 14.4727 151.203 14.9648C151.539 15.5664 151.797 16.2305 151.977 16.957C152.164 17.6836 152.258 18.457 152.258 19.2773V20.6836C152.258 21.4727 152.172 22.2188 152 22.9219C151.828 23.625 151.586 24.2695 151.273 24.8555C150.977 25.3789 150.629 25.8633 150.23 26.3086C149.832 26.7461 149.395 27.1133 148.918 27.4102C148.363 27.7617 147.75 28.0312 147.078 28.2188C146.414 28.4062 145.703 28.5 144.945 28.5H140.363ZM143.68 14.1094V25.8516H144.945C145.352 25.8516 145.73 25.8008 146.082 25.6992C146.434 25.5977 146.754 25.4492 147.043 25.2539C147.34 25.0508 147.605 24.793 147.84 24.4805C148.082 24.1602 148.289 23.7891 148.461 23.3672C148.602 23 148.707 22.5938 148.777 22.1484C148.855 21.6953 148.895 21.207 148.895 20.6836V19.2539C148.895 18.7617 148.855 18.2969 148.777 17.8594C148.707 17.4141 148.602 17.0078 148.461 16.6406C148.289 16.2031 148.062 15.8125 147.781 15.4688C147.508 15.125 147.188 14.8438 146.82 14.625C146.539 14.4609 146.227 14.3359 145.883 14.25C145.547 14.1562 145.18 14.1094 144.781 14.1094H143.68ZM154.52 22.043C154.52 21.1211 154.652 20.2695 154.918 19.4883C155.184 18.6992 155.574 18.0156 156.09 17.4375C156.598 16.8594 157.219 16.4062 157.953 16.0781C158.695 15.75 159.543 15.5859 160.496 15.5859C161.449 15.5859 162.297 15.75 163.039 16.0781C163.781 16.4062 164.41 16.8594 164.926 17.4375C165.434 18.0156 165.82 18.6992 166.086 19.4883C166.352 20.2695 166.484 21.1211 166.484 22.043V22.2891C166.484 23.2188 166.352 24.0781 166.086 24.8672C165.82 25.6484 165.434 26.3281 164.926 26.9062C164.418 27.4844 163.793 27.9375 163.051 28.2656C162.309 28.5859 161.465 28.7461 160.52 28.7461C159.566 28.7461 158.715 28.5859 157.965 28.2656C157.223 27.9375 156.598 27.4844 156.09 26.9062C155.574 26.3281 155.184 25.6484 154.918 24.8672C154.652 24.0781 154.52 23.2188 154.52 22.2891V22.043ZM157.777 22.2891C157.777 22.8203 157.828 23.3203 157.93 23.7891C158.031 24.25 158.191 24.6523 158.41 24.9961C158.629 25.3477 158.91 25.625 159.254 25.8281C159.605 26.0312 160.027 26.1328 160.52 26.1328C160.996 26.1328 161.406 26.0312 161.75 25.8281C162.094 25.625 162.375 25.3477 162.594 24.9961C162.805 24.6523 162.961 24.25 163.062 23.7891C163.164 23.3203 163.215 22.8203 163.215 22.2891V22.043C163.215 21.5273 163.164 21.0391 163.062 20.5781C162.961 20.1172 162.805 19.7109 162.594 19.3594C162.375 19.0078 162.094 18.7305 161.75 18.5273C161.406 18.3242 160.988 18.2227 160.496 18.2227C160.012 18.2227 159.598 18.3242 159.254 18.5273C158.91 18.7305 158.629 19.0078 158.41 19.3594C158.191 19.7109 158.031 20.1172 157.93 20.5781C157.828 21.0391 157.777 21.5273 157.777 22.043V22.2891Z" fill="white"/>
</svg>
